<?xml version="1.0" standalone="no"?>
<!DOCTYPE svg PUBLIC "-//W3C//DTD SVG 20010904//EN"
 "http://www.w3.org/TR/2001/REC-SVG-20010904/DTD/svg10.dtd">
<svg version="1.0" xmlns="http://www.w3.org/2000/svg"
 width="879.000000pt" height="168.000000pt" viewBox="0 0 879.000000 168.000000"
 preserveAspectRatio="xMidYMid meet">

<g transform="translate(0.000000,168.000000) scale(0.100000,-0.100000)"
fill="#000000" stroke="none">
<path d="M8014 1550 c-40 -10 -93 -30 -120 -43 l-48 -24 57 -21 c77 -29 194
-88 213 -107 17 -16 39 -21 29 -6 -6 11 34 6 44 -5 3 -4 -2 -4 -11 -1 -19 7
-25 -7 -9 -18 5 -3 18 7 29 23 22 30 60 39 69 16 4 -11 11 -9 30 12 l24 26 -6
-29 c-5 -26 -5 -26 5 -5 5 13 14 21 19 17 6 -3 14 3 20 12 8 14 11 15 11 3 0
-12 3 -11 11 3 6 9 14 15 20 12 5 -4 9 0 9 9 0 25 -128 123 -175 135 -63 16
-139 13 -221 -9z"/>
<path d="M7400 1447 c0 -2 6 -10 14 -16 11 -9 16 -9 22 1 4 7 4 10 -1 6 -4 -4
-14 -3 -22 3 -7 6 -13 9 -13 6z"/>
<path d="M8390 1400 c0 -6 7 -10 15 -10 8 0 15 2 15 4 0 2 -7 6 -15 10 -8 3
-15 1 -15 -4z"/>
<path d="M7356 1385 c-11 -8 -16 -15 -11 -15 4 0 1 -8 -7 -17 -38 -42 -51
-205 -24 -293 27 -89 76 -171 76 -127 0 7 16 45 35 86 19 40 33 77 29 82 -3 5
0 9 5 9 6 0 11 7 11 16 0 8 4 13 8 10 10 -6 8 36 -3 55 -6 9 -2 8 11 -3 19
-16 20 -16 21 3 1 10 -2 17 -8 14 -5 -4 -13 4 -18 17 -9 21 -10 21 -11 3 -1
-15 -4 -13 -10 8 -5 16 -6 36 -3 45 3 12 2 13 -4 5 -6 -9 -13 -2 -22 23 -11
31 -14 33 -25 19 -10 -14 -12 -11 -8 19 3 27 1 36 -9 34 -8 -2 -13 3 -11 10 3
15 2 15 -22 -3z m33 -39 c0 -7 -2 -6 -6 2 -2 6 -8 10 -12 8 -4 -3 -8 1 -8 9 0
11 4 12 14 4 7 -6 13 -17 12 -23z m46 -72 c8 -20 15 -46 14 -58 -1 -23 -4 -17
-13 27 -4 15 -10 26 -14 23 -4 -2 -7 7 -7 20 0 32 2 31 20 -12z"/>
<path d="M8217 1356 c-4 -10 -3 -15 3 -11 6 3 10 1 10 -5 0 -7 5 -6 14 2 8 7
12 17 9 22 -3 4 -9 3 -13 -4 -6 -9 -9 -9 -12 1 -3 9 -6 8 -11 -5z"/>
<path d="M1150 1306 c0 -2 8 -10 18 -17 15 -13 16 -12 3 4 -13 16 -21 21 -21
13z"/>
<path d="M1940 1139 c0 -5 -4 -8 -8 -5 -4 2 -8 -4 -8 -15 0 -19 1 -19 13 -3
13 18 17 34 8 34 -3 0 -5 -5 -5 -11z"/>
<path d="M8409 980 c-7 -19 -31 -72 -54 -116 -23 -45 -40 -89 -39 -97 1 -9 -3
-15 -9 -14 -7 1 -19 -13 -27 -30 -8 -18 -20 -33 -27 -33 -6 0 -15 -4 -18 -10
-4 -6 1 -7 12 -3 16 6 16 4 -2 -17 -11 -13 -14 -20 -7 -16 6 4 12 2 12 -4 0
-6 5 -8 11 -4 8 5 8 1 0 -14 -6 -11 -11 -23 -11 -27 0 -3 5 -3 11 1 8 5 8 1 0
-14 -6 -11 -11 -23 -11 -27 0 -3 5 -3 11 1 8 5 8 1 0 -14 -6 -11 -11 -23 -11
-27 0 -3 5 -3 11 1 8 5 8 1 0 -14 -14 -27 -14 -35 1 -26 7 5 8 3 3 -5 -4 -7
-9 -29 -11 -49 -2 -19 -9 -39 -16 -44 -7 -4 -8 -8 -3 -8 6 0 21 9 35 20 14 11
31 20 38 20 24 0 143 123 169 174 48 95 38 235 -26 371 l-29 60 -13 -35z"/>
<path d="M1236 893 c-6 -14 -5 -15 5 -6 7 7 10 15 7 18 -3 3 -9 -2 -12 -12z"/>
<path d="M1869 723 c-13 -16 -12 -17 4 -4 9 7 17 15 17 17 0 8 -8 3 -21 -13z"/>
<path d="M8240 619 c0 -5 -4 -8 -8 -5 -11 6 -8 -46 3 -63 4 -8 2 -17 -6 -23
-12 -8 -11 -9 1 -5 10 2 15 19 16 55 0 29 -1 52 -3 52 -2 0 -3 -5 -3 -11z"/>
<path d="M7605 590 c-3 -5 -1 -10 6 -10 7 0 9 -3 6 -6 -4 -4 -13 -2 -20 4 -10
9 -19 7 -35 -9 -12 -11 -22 -16 -22 -11 0 16 -50 9 -51 -7 0 -11 -3 -10 -9 4
l-9 20 0 -20 c-1 -15 -3 -17 -10 -6 -7 11 -9 11 -13 0 -2 -7 -16 -14 -30 -14
-17 -1 -24 3 -21 11 2 6 0 15 -6 18 -15 10 -9 -35 9 -65 18 -31 89 -92 134
-117 50 -28 211 -22 303 11 40 14 82 32 94 40 20 14 18 16 -33 32 -29 9 -81
33 -116 51 -35 19 -68 32 -73 28 -5 -3 -8 0 -7 8 2 8 -6 13 -19 12 -12 0 -21
4 -20 10 1 6 -4 10 -12 8 -7 -1 -19 2 -26 8 -9 8 -15 8 -20 0z"/>
<path d="M8236 494 c-3 -9 -3 -20 0 -26 4 -6 1 -14 -6 -18 -9 -5 -8 -8 2 -12
10 -4 14 4 14 33 1 43 -1 47 -10 23z"/>
<path d="M1446 431 c-3 -5 2 -15 12 -22 15 -12 16 -12 5 2 -7 9 -10 19 -6 22
3 4 4 7 0 7 -3 0 -8 -4 -11 -9z"/>
<path d="M893 415 c0 -8 4 -12 9 -9 5 3 6 10 3 15 -9 13 -12 11 -12 -6z"/>
<path d="M385 301 c-3 -5 -2 -12 3 -15 5 -3 9 1 9 9 0 17 -3 19 -12 6z"/>
</g>
</svg>
